<svg xmlns="http://www.w3.org/2000/svg" width="32" height="32"><rect id="backgroundrect" width="100%" height="100%" x="0" y="0" fill="none" stroke="none"/><title/><g class="currentLayer" style=""><title>Layer 1</title><g data-name="Layer 26" id="Layer_26" class="selected" fill="#201a4f" fill-opacity="1"><path d="M28.83,16.17A13,13,0,0,1,3.2,19.28a1,1,0,0,1,1.94-.48,11,11,0,1,0,.66-7.16L9,10.51a1,1,0,0,1,1.28.62,1,1,0,0,1-.62,1.27L4.56,14.2a1,1,0,0,1-.33.05,1,1,0,0,1-.89-.54L1.11,9.33a1,1,0,1,1,1.78-.91L4,10.69a13,13,0,0,1,24.79,5.48Z" id="svg_1" fill="#201a4f" fill-opacity="1"/></g></g></svg>